<svg width="48" height="48" viewBox="0 0 48 48" fill="none" xmlns="http://www.w3.org/2000/svg">
<path d="M4 12C4 11.4696 4.21071 10.9609 4.58579 10.5858C4.96086 10.2107 5.46957 10 6 10H42C42.5304 10 43.0391 10.2107 43.4142 10.5858C43.7893 10.9609 44 11.4696 44 12C44 12.5304 43.7893 13.0391 43.4142 13.4142C43.0391 13.7893 42.5304 14 42 14H6C5.46957 14 4.96086 13.7893 4.58579 13.4142C4.21071 13.0391 4 12.5304 4 12V12Z" fill="#0000FF"/>
<path d="M4 24.0625C4 23.5321 4.21071 23.0234 4.58579 22.6483C4.96086 22.2732 5.46957 22.0625 6 22.0625H42C42.5304 22.0625 43.0391 22.2732 43.4142 22.6483C43.7893 23.0234 44 23.5321 44 24.0625C44 24.5929 43.7893 25.1016 43.4142 25.4767C43.0391 25.8518 42.5304 26.0625 42 26.0625H6C5.46957 26.0625 4.96086 25.8518 4.58579 25.4767C4.21071 25.1016 4 24.5929 4 24.0625V24.0625Z" fill="#0000FF"/>
<path d="M6 34.125C5.46957 34.125 4.96086 34.3357 4.58579 34.7108C4.21071 35.0859 4 35.5946 4 36.125C4 36.6554 4.21071 37.1641 4.58579 37.5392C4.96086 37.9143 5.46957 38.125 6 38.125H42C42.5304 38.125 43.0391 37.9143 43.4142 37.5392C43.7893 37.1641 44 36.6554 44 36.125C44 35.5946 43.7893 35.0859 43.4142 34.7108C43.0391 34.3357 42.5304 34.125 42 34.125H6Z" fill="#0000FF"/>
</svg>
